<svg width="301" height="101" viewBox="0 0 301 101" fill="none" xmlns="http://www.w3.org/2000/svg">
<g clip-path="url(#clip0_6_5)">
<g filter="url(#filter0_i_6_5)">
<path d="M268.797 0.122498H31.8315C15.7143 0.122498 2.64865 12.6988 2.64865 28.2124V67.5382C2.64865 83.0518 15.7143 95.6281 31.8315 95.6281H268.797C284.914 95.6281 297.979 83.0518 297.979 67.5382V28.2124C297.979 12.6988 284.914 0.122498 268.797 0.122498Z" fill="#1A4D2E"/>
<path d="M268.796 0.684296H31.8315C16.0366 0.684296 3.23232 13.009 3.23232 28.2124V67.5382C3.23232 82.7416 16.0366 95.0663 31.8315 95.0663H268.796C284.591 95.0663 297.396 82.7416 297.396 67.5382V28.2124C297.396 13.009 284.591 0.684296 268.796 0.684296Z" stroke="#FF9F29" stroke-width="2"/>
</g>
<path d="M191.88 23.6605H183.589C183.479 22.8413 183.252 22.1018 182.91 21.4421C182.566 20.7824 182.113 20.2185 181.55 19.7503C180.986 19.2822 180.317 18.9257 179.544 18.681C178.781 18.4256 177.935 18.298 177.006 18.298C175.359 18.298 173.939 18.6863 172.745 19.463C171.562 20.2398 170.65 21.3623 170.009 22.8307C169.379 24.299 169.064 26.0759 169.064 28.1613C169.064 30.3319 169.384 32.1514 170.026 33.6197C170.678 35.0774 171.59 36.1786 172.761 36.9235C173.945 37.6576 175.343 38.0247 176.957 38.0247C177.863 38.0247 178.687 37.913 179.427 37.6895C180.179 37.4661 180.836 37.1416 181.4 36.716C181.975 36.2797 182.445 35.753 182.81 35.1359C183.186 34.5081 183.445 33.8006 183.589 33.0132L191.88 33.0611C191.736 34.5081 191.3 35.9339 190.57 37.3384C189.852 38.7429 188.862 40.025 187.602 41.1848C186.341 42.334 184.805 43.249 182.992 43.93C181.191 44.6109 179.123 44.9514 176.791 44.9514C173.718 44.9514 170.966 44.3024 168.533 43.0043C166.112 41.6955 164.2 39.7909 162.796 37.2905C161.392 34.7901 160.69 31.7471 160.69 28.1613C160.69 24.565 161.404 21.5166 162.829 19.0162C164.255 16.5157 166.184 14.6164 168.616 13.3184C171.048 12.0203 173.773 11.3712 176.791 11.3712C178.847 11.3712 180.748 11.6479 182.495 12.2012C184.241 12.7438 185.778 13.5418 187.104 14.5952C188.431 15.6379 189.508 16.92 190.338 18.4416C191.167 19.9631 191.681 21.7028 191.88 23.6605ZM205.915 44.5045V11.8181H214.122V24.9374H227.503V11.8181H235.695V44.5045H227.503V31.3693H214.122V44.5045H205.915ZM282.233 28.1613C282.233 31.7577 281.514 34.8061 280.077 37.3065C278.64 39.8069 276.695 41.7062 274.241 43.0043C271.798 44.3024 269.057 44.9514 266.017 44.9514C262.966 44.9514 260.219 44.2971 257.776 42.9883C255.333 41.6796 253.393 39.7803 251.956 37.2905C250.53 34.7901 249.817 31.7471 249.817 28.1613C249.817 24.565 250.53 21.5166 251.956 19.0162C253.393 16.5157 255.333 14.6164 257.776 13.3184C260.219 12.0203 262.966 11.3712 266.017 11.3712C269.057 11.3712 271.798 12.0203 274.241 13.3184C276.695 14.6164 278.64 16.5157 280.077 19.0162C281.514 21.5166 282.233 24.565 282.233 28.1613ZM273.843 28.1613C273.843 26.0333 273.528 24.2352 272.898 22.7668C272.279 21.2985 271.383 20.1866 270.212 19.4311C269.051 18.6757 267.653 18.298 266.017 18.298C264.392 18.298 262.993 18.6757 261.822 19.4311C260.65 20.1866 259.749 21.2985 259.119 22.7668C258.5 24.2352 258.19 26.0333 258.19 28.1613C258.19 30.2894 258.5 32.0875 259.119 33.5559C259.749 35.0242 260.65 36.1361 261.822 36.8916C262.993 37.647 264.392 38.0247 266.017 38.0247C267.653 38.0247 269.051 37.647 270.212 36.8916C271.383 36.1361 272.279 35.0242 272.898 33.5559C273.528 32.0875 273.843 30.2894 273.843 28.1613ZM193.107 67.4871C193.107 71.0837 192.388 74.1321 190.951 76.6326C189.514 79.1326 187.569 81.0321 185.115 82.3304C182.671 83.6281 179.93 84.277 176.89 84.277C173.84 84.277 171.092 83.6231 168.65 82.3141C166.206 81.0057 164.266 79.1062 162.829 76.6163C161.404 74.1158 160.69 71.0731 160.69 67.4871C160.69 63.8911 161.404 60.8422 162.829 58.3422C164.266 55.8416 166.206 53.9423 168.65 52.6442C171.092 51.3461 173.84 50.6971 176.89 50.6971C179.93 50.6971 182.671 51.3461 185.115 52.6442C187.569 53.9423 189.514 55.8416 190.951 58.3422C192.388 60.8422 193.107 63.8911 193.107 67.4871ZM184.717 67.4871C184.717 65.359 184.401 63.5607 183.772 62.0927C183.152 60.6242 182.257 59.5124 181.086 58.7568C179.925 58.0017 178.526 57.6236 176.89 57.6236C175.265 57.6236 173.867 58.0017 172.696 58.7568C171.524 59.5124 170.622 60.6242 169.993 62.0927C169.373 63.5607 169.064 65.359 169.064 67.4871C169.064 69.6152 169.373 71.4135 169.993 72.8815C170.622 74.35 171.524 75.4618 172.696 76.2175C173.867 76.9731 175.265 77.3506 176.89 77.3506C178.526 77.3506 179.925 76.9731 181.086 76.2175C182.257 75.4618 183.152 74.35 183.772 72.8815C184.401 71.4135 184.717 69.6152 184.717 67.4871ZM225.592 60.9433C225.482 59.7731 224.99 58.8635 224.117 58.2141C223.255 57.5545 222.022 57.2248 220.419 57.2248C219.358 57.2248 218.474 57.3579 217.766 57.6236C217.059 57.8899 216.528 58.2568 216.175 58.7248C215.821 59.1826 215.638 59.709 215.627 60.3051C215.605 60.7944 215.705 61.2253 215.926 61.5978C216.158 61.9703 216.49 62.3 216.92 62.5877C217.363 62.8641 217.893 63.109 218.513 63.3214C219.131 63.5343 219.828 63.7208 220.602 63.8804L223.52 64.5186C225.2 64.8697 226.682 65.3377 227.964 65.9231C229.257 66.5085 230.34 67.2051 231.214 68.0141C232.098 68.8225 232.767 69.7534 233.22 70.8068C233.673 71.8602 233.905 73.0411 233.917 74.35C233.905 76.4141 233.364 78.186 232.292 79.6646C231.219 81.1439 229.677 82.277 227.665 83.0641C225.664 83.8517 223.249 84.2455 220.419 84.2455C217.578 84.2455 215.102 83.8354 212.991 83.0163C210.88 82.1972 209.238 80.9523 208.066 79.2815C206.894 77.6113 206.292 75.4989 206.259 72.9455H214.118C214.185 73.9989 214.478 74.8764 214.997 75.5787C215.517 76.2809 216.23 76.813 217.136 77.1748C218.054 77.5366 219.115 77.7175 220.32 77.7175C221.425 77.7175 222.365 77.5742 223.139 77.2866C223.923 76.9995 224.526 76.6006 224.946 76.0899C225.366 75.5787 225.581 74.9939 225.592 74.3343C225.581 73.7169 225.382 73.1905 224.996 72.754C224.609 72.3073 224.012 71.9242 223.205 71.6051C222.409 71.2753 221.392 70.972 220.154 70.695L216.606 69.8972C213.665 69.2484 211.349 68.2 209.658 66.7528C207.967 65.2955 207.127 63.327 207.138 60.8478C207.127 58.8259 207.69 57.0545 208.829 55.533C209.967 54.0114 211.543 52.8251 213.554 51.9739C215.566 51.1227 217.86 50.6971 220.436 50.6971C223.067 50.6971 225.35 51.128 227.284 51.9899C229.229 52.841 230.739 54.0381 231.811 55.5809C232.883 57.1236 233.43 58.9113 233.452 60.9433H225.592ZM247.4 83.8304V51.144H271.078V57.5602H255.608V64.263H269.868V70.695H255.608V77.4146H271.078V83.8304H247.4Z" fill="black"/>
<g filter="url(#filter1_i_6_5)">
<path d="M121.131 0.122498H31.8315C15.7143 0.122498 2.64865 12.6988 2.64865 28.2124V67.5382C2.64865 83.0518 15.7143 95.6281 31.8315 95.6281H121.131C137.248 95.6281 150.314 83.0518 150.314 67.5382V28.2124C150.314 12.6988 137.248 0.122498 121.131 0.122498Z" fill="black"/>
<path d="M121.131 0.684296H31.8315C16.0366 0.684296 3.23232 13.009 3.23232 28.2124V67.5382C3.23232 82.7416 16.0366 95.0663 31.8315 95.0663H121.131C136.926 95.0663 149.73 82.7416 149.73 67.5382V28.2124C149.73 13.009 136.926 0.684296 121.131 0.684296Z" stroke="#1A4D2E" stroke-width="2"/>
</g>
<path d="M19.3961 29.6424H29.7116L37.7888 45.03H38.1245L46.2016 29.6424H56.5172L42.5455 54.1333V66.4146H33.3678V54.1333L19.3961 29.6424ZM93.9321 48.0285C93.9321 52.0744 93.1238 55.5038 91.507 58.3169C89.8903 61.1298 87.7016 63.2663 84.9409 64.727C82.1924 66.1871 79.1084 66.9174 75.6887 66.9174C72.2562 66.9174 69.1658 66.1815 66.4179 64.709C63.6695 63.2365 61.4866 61.1 59.8705 58.2989C58.266 55.4859 57.4639 52.0624 57.4639 48.0285C57.4639 43.9826 58.266 40.5532 59.8705 37.7402C61.4866 34.9272 63.6695 32.7905 66.4179 31.3302C69.1658 29.8698 72.2562 29.1397 75.6887 29.1397C79.1084 29.1397 82.1924 29.8698 84.9409 31.3302C87.7016 32.7905 89.8903 34.9272 91.507 37.7402C93.1238 40.5532 93.9321 43.9826 93.9321 48.0285ZM84.4932 48.0285C84.4932 45.6345 84.1389 43.6115 83.4298 41.9597C82.7335 40.3078 81.7261 39.0569 80.4082 38.207C79.1026 37.3571 77.529 36.9322 75.6887 36.9322C73.8607 36.9322 72.2872 37.3571 70.9693 38.207C69.6508 39.0569 68.6376 40.3078 67.9284 41.9597C67.2321 43.6115 66.8843 45.6345 66.8843 48.0285C66.8843 50.4225 67.2321 52.4455 67.9284 54.0974C68.6376 55.7492 69.6508 57 70.9693 57.85C72.2872 58.7 73.8607 59.1247 75.6887 59.1247C77.529 59.1247 79.1026 58.7 80.4082 57.85C81.7261 57 82.7335 55.7492 83.4298 54.0974C84.1389 52.4455 84.4932 50.4225 84.4932 48.0285ZM122.435 29.6424H131.65V53.3612C131.65 56.1024 130.972 58.4905 129.617 60.5253C128.261 62.5483 126.371 64.1163 123.946 65.2298C121.521 66.3309 118.704 66.8815 115.496 66.8815C112.25 66.8815 109.415 66.3309 106.99 65.2298C104.565 64.1163 102.681 62.5483 101.338 60.5253C99.9946 58.4905 99.3228 56.1024 99.3228 53.3612V29.6424H108.557V52.5891C108.557 53.8579 108.843 54.9891 109.415 55.9827C109.999 56.9764 110.814 57.7545 111.859 58.3169C112.903 58.8792 114.116 59.1607 115.496 59.1607C116.876 59.1607 118.083 58.8792 119.115 58.3169C120.159 57.7545 120.974 56.9764 121.558 55.9827C122.143 54.9891 122.435 53.8579 122.435 52.5891V29.6424Z" fill="#FF9F29"/>
</g>
<defs>
<filter id="filter0_i_6_5" x="2.23232" y="-0.315704" width="296.163" height="100.382" filterUnits="userSpaceOnUse" color-interpolation-filters="sRGB">
<feFlood flood-opacity="0" result="BackgroundImageFix"/>
<feBlend mode="normal" in="SourceGraphic" in2="BackgroundImageFix" result="shape"/>
<feColorMatrix in="SourceAlpha" type="matrix" values="0 0 0 0 0 0 0 0 0 0 0 0 0 0 0 0 0 0 127 0" result="hardAlpha"/>
<feOffset dy="4"/>
<feGaussianBlur stdDeviation="2"/>
<feComposite in2="hardAlpha" operator="arithmetic" k2="-1" k3="1"/>
<feColorMatrix type="matrix" values="0 0 0 0 0 0 0 0 0 0 0 0 0 0 0 0 0 0 0.25 0"/>
<feBlend mode="normal" in2="shape" result="effect1_innerShadow_6_5"/>
</filter>
<filter id="filter1_i_6_5" x="2.23232" y="-0.315704" width="148.498" height="100.382" filterUnits="userSpaceOnUse" color-interpolation-filters="sRGB">
<feFlood flood-opacity="0" result="BackgroundImageFix"/>
<feBlend mode="normal" in="SourceGraphic" in2="BackgroundImageFix" result="shape"/>
<feColorMatrix in="SourceAlpha" type="matrix" values="0 0 0 0 0 0 0 0 0 0 0 0 0 0 0 0 0 0 127 0" result="hardAlpha"/>
<feOffset dy="4"/>
<feGaussianBlur stdDeviation="2"/>
<feComposite in2="hardAlpha" operator="arithmetic" k2="-1" k3="1"/>
<feColorMatrix type="matrix" values="0 0 0 0 0 0 0 0 0 0 0 0 0 0 0 0 0 0 0.25 0"/>
<feBlend mode="normal" in2="shape" result="effect1_innerShadow_6_5"/>
</filter>

</defs>
</svg>
